<svg width="147" height="147" viewBox="0 0 147 147" fill="none" xmlns="http://www.w3.org/2000/svg">
<path d="M96.0808 80.8908C93.8146 80.8976 91.5547 80.651 89.3433 80.1558C90.6323 82.9412 91.618 85.8571 92.2833 88.8533C93.5083 88.8533 94.7741 88.8533 96.0808 88.8533C100.245 88.8468 104.381 88.1713 108.331 86.8525L104.533 79.4617C101.795 80.3232 98.9505 80.8041 96.0808 80.8908Z" fill="#E03A3C"/>
<path d="M74.9701 72.9691L73.5001 71.4175C70.312 68.3005 67.8532 64.5166 66.3001 60.3373C64.747 56.1579 64.138 51.6866 64.5168 47.2441C64.9338 41.2937 67.1241 35.6046 70.8051 30.9108L70.4784 36.75C70.4743 37.7722 70.8537 38.7587 71.5417 39.5148C72.2297 40.2708 73.1762 40.7413 74.1943 40.8333H74.5618C75.584 40.8374 76.5706 40.458 77.3266 39.7701C78.0826 39.0821 78.5531 38.1355 78.6451 37.1175L80.0334 20.4166C80.0823 19.8252 80.0017 19.2302 79.7972 18.6731C79.5927 18.116 79.2692 17.6101 78.8493 17.1908C78.4023 16.8287 77.8839 16.5652 77.328 16.4174C76.7721 16.2696 76.1912 16.241 75.6234 16.3333L58.9226 17.7625C57.8396 17.8545 56.8376 18.373 56.1369 19.2039C55.4362 20.0347 55.0943 21.1099 55.1864 22.1929C55.2784 23.2758 55.7969 24.2779 56.6278 24.9786C57.4586 25.6793 58.5338 26.0212 59.6168 25.9291L64.8843 25.48C59.9241 31.6866 57.0008 39.2731 56.5134 47.2033C56.0915 52.638 56.8471 58.0998 58.7286 63.2159C60.6102 68.332 63.5733 72.9819 67.4159 76.8483L68.6818 78.3591C73.8997 83.7515 76.9018 90.9071 77.0934 98.4083C77.3111 101.806 76.9521 105.216 76.0318 108.494L83.3818 112.21C84.9629 107.607 85.5882 102.73 85.2193 97.8775C84.9686 88.5997 81.3216 79.7366 74.9701 72.9691Z" fill="#E03A3C"/>
<path d="M132.3 73.1325L127.359 73.5C131.868 67.6647 134.648 60.6815 135.385 53.3443C136.122 46.0072 134.785 38.6106 131.526 31.9956C128.267 25.3806 123.218 19.8127 116.952 15.925C110.686 12.0374 103.455 9.98599 96.0808 10.0041C91.9156 9.99695 87.7773 10.6729 83.8308 12.005L87.5466 19.355C92.2083 18.0348 97.1127 17.8141 101.874 18.7103C106.636 19.6065 111.124 21.5952 114.987 24.5199C118.849 27.4446 121.981 31.2256 124.135 35.5655C126.289 39.9054 127.406 44.6858 127.4 49.5308C127.399 56.5324 125.024 63.3267 120.662 68.8041L121.071 62.5158C121.106 61.9796 121.035 61.4417 120.862 60.933C120.689 60.4242 120.417 59.9545 120.063 59.5507C119.708 59.1469 119.277 58.8169 118.795 58.5795C118.313 58.342 117.789 58.2019 117.253 58.1671C116.717 58.1322 116.179 58.2033 115.67 58.3763C115.161 58.5493 114.692 58.8208 114.288 59.1754C113.884 59.5299 113.554 59.9605 113.317 60.4426C113.079 60.9246 112.939 61.4487 112.904 61.985L111.761 78.645C111.728 79.2359 111.825 79.8268 112.043 80.3767C112.262 80.9267 112.597 81.4225 113.027 81.83C113.394 82.2024 113.833 82.4959 114.317 82.6925C114.802 82.8891 115.321 82.9847 115.844 82.9733H116.252L132.912 81.2583C133.45 81.2073 133.972 81.0503 134.448 80.7964C134.924 80.5425 135.345 80.1967 135.687 79.779C136.029 79.3613 136.284 78.88 136.439 78.363C136.593 77.8459 136.644 77.3034 136.587 76.7666C136.474 75.7271 135.966 74.7707 135.168 74.0945C134.371 73.4184 133.344 73.074 132.3 73.1325Z" fill="#E03A3C"/>
<path d="M16.6191 83.4633H16.9458L33.6466 82.0342C34.1829 81.9886 34.7049 81.8378 35.1828 81.5905C35.6608 81.3432 36.0854 81.0042 36.4323 80.5928C36.7793 80.1814 37.0418 79.7057 37.2049 79.1928C37.368 78.6799 37.4285 78.14 37.3829 77.6037C37.3373 77.0675 37.1865 76.5455 36.9392 76.0675C36.6919 75.5896 36.3529 75.165 35.9415 74.8181C35.5301 74.4711 35.0544 74.2086 34.5415 74.0455C34.0287 73.8824 33.4887 73.8219 32.9525 73.8675L27.2766 74.3575C32.6228 70.4135 39.0897 68.2817 45.7333 68.2733C47.9714 68.2868 50.202 68.5331 52.3891 69.0083C51.1066 66.2243 50.1343 63.3076 49.49 60.3108C48.265 60.3108 46.9991 60.3108 45.7333 60.3108C37.0212 60.2978 28.55 63.1695 21.6416 68.4775L22.1316 63.1283C22.1763 62.5918 22.1144 62.0516 21.9495 61.5391C21.7846 61.0265 21.5199 60.5517 21.1708 60.1418C20.8216 59.7319 20.3948 59.3951 19.915 59.1508C19.4352 58.9065 18.9118 58.7596 18.375 58.7183C17.2977 58.6278 16.2286 58.9681 15.4019 59.6647C14.5752 60.3612 14.0585 61.3572 13.965 62.4342L12.5358 79.0942C12.4906 79.6572 12.5627 80.2235 12.7476 80.7573C12.9325 81.291 13.2261 81.7806 13.6098 82.1951C13.9936 82.6096 14.4592 82.9399 14.9772 83.1652C15.4952 83.3906 16.0543 83.506 16.6191 83.5042V83.4633Z" fill="#E03A3C"/>
<path d="M75.2151 115.272L58.5142 116.375C57.4313 116.445 56.4206 116.943 55.7046 117.759C54.9886 118.574 54.6259 119.641 54.6963 120.724C54.7667 121.807 55.2644 122.817 56.08 123.533C56.8955 124.249 57.9621 124.612 59.0451 124.542L65.3334 124.092C60.7089 127.809 55.1283 130.144 49.2348 130.827C43.3412 131.509 37.3747 130.513 32.0228 127.952C26.6709 125.392 22.1515 121.371 18.9855 116.353C15.8195 111.336 14.1358 105.525 14.1284 99.5925C14.1578 96.8297 14.556 94.0832 15.3126 91.4258L8.16673 87.6283C6.90173 91.5187 6.25415 95.5833 6.24756 99.6741C6.29547 107.069 8.4127 114.303 12.3596 120.557C16.3064 126.811 21.9253 131.835 28.58 135.06C35.2347 138.285 42.6595 139.583 50.0138 138.807C57.3681 138.03 64.3581 135.211 70.1926 130.667L69.7026 135.485C69.646 136.019 69.6951 136.558 69.8471 137.073C69.9992 137.587 70.2512 138.067 70.5887 138.484C70.9262 138.901 71.3426 139.248 71.8141 139.504C72.2857 139.76 72.8031 139.921 73.3367 139.977H73.7859C74.8017 139.982 75.7829 139.608 76.538 138.928C77.293 138.249 77.7676 137.312 77.8692 136.302L79.5842 119.723C79.6449 119.133 79.5759 118.536 79.3822 117.974C79.1885 117.413 78.8746 116.901 78.4626 116.473C78.0505 116.045 77.5501 115.713 76.9962 115.498C76.4424 115.284 75.8485 115.193 75.2559 115.232L75.2151 115.272Z" fill="#E03A3C"/>
</svg>
