<svg width="114" height="123" viewBox="0 0 114 123" fill="none" xmlns="http://www.w3.org/2000/svg">
<g clip-path="url(#clip0_62_39)">
<path fill-rule="evenodd" clip-rule="evenodd" d="M74.7299 100.47C74.7299 100.37 74.7299 100.27 74.7299 100.16V46C74.7299 45.9 74.7299 45.79 74.7299 45.69C74.6647 45.3454 74.4975 45.0284 74.2499 44.78C74.0909 44.6213 73.9023 44.4954 73.6946 44.4096C73.487 44.3238 73.2645 44.2798 73.0399 44.28H40.5099C40.0537 44.28 39.6162 44.4612 39.2937 44.7838C38.9711 45.1064 38.7899 45.5438 38.7899 46V100.15C38.7925 100.606 38.9742 101.043 39.2959 101.367C39.6177 101.691 40.0536 101.875 40.5099 101.88H54.0899V104.67C52.595 105.097 51.2315 105.893 50.1253 106.985C49.019 108.077 48.2055 109.431 47.7599 110.92H34.3099V116H47.6899C48.2243 117.966 49.3906 119.701 51.009 120.938C52.6274 122.175 54.6078 122.846 56.6449 122.846C58.682 122.846 60.6624 122.175 62.2808 120.938C63.8992 119.701 65.0655 117.966 65.5999 116H89.3599V110.89H65.5399C65.0957 109.421 64.2953 108.085 63.2099 107C62.1006 105.884 60.7233 105.071 59.2099 104.64V101.85H72.9999C73.2255 101.851 73.4489 101.806 73.6568 101.718C73.8647 101.631 74.0528 101.502 74.2099 101.34C74.459 101.093 74.6265 100.775 74.6899 100.43L74.7299 100.47ZM79.7299 27.65C79.0299 27.99 78.3399 28.37 77.6499 28.77C75.4607 30.078 73.3777 31.5559 71.4199 33.19L66.9999 28.07C68.5525 26.6331 70.2253 25.3317 71.9999 24.18C73.4118 23.2629 74.8853 22.4443 76.4099 21.73C77.0199 21.43 77.6299 21.14 78.2599 20.88C75.5216 15.9728 71.3291 12.0353 66.2599 9.61002C61.4567 7.32735 56.1221 6.39734 50.8299 6.92002C45.5842 7.4011 40.5815 9.35639 36.3999 12.56C31.1372 16.7243 27.6062 22.6925 26.4899 29.31L26.0499 31.63L23.7399 32C21.672 32.3462 19.6425 32.8921 17.6799 33.63C16.0534 34.2487 14.5139 35.0756 13.0999 36.09C12.0643 36.8283 11.1268 37.6952 10.3099 38.67C7.94095 41.5833 6.68924 45.2462 6.7799 49C6.82254 52.8272 8.04864 56.5474 10.2899 59.65C11.1243 60.8178 12.1057 61.8732 13.2099 62.79C14.3488 63.7348 15.6273 64.4972 16.9999 65.05C18.2142 65.5466 19.478 65.912 20.7699 66.14V73C18.5917 72.7056 16.4587 72.1413 14.4199 71.32C12.4044 70.5047 10.5259 69.385 8.8499 68C7.31721 66.7216 5.94999 65.2569 4.7799 63.64C1.71166 59.3714 0.0417277 54.2568 -0.000104506 49C-0.0983421 43.6653 1.71007 38.4705 5.0999 34.35C6.27289 32.9451 7.6166 31.6921 9.0999 30.62C10.9946 29.2691 13.0547 28.1667 15.2299 27.34C16.8842 26.7032 18.5818 26.1852 20.3099 25.79C22.0679 18.4112 26.2817 11.849 32.2599 7.18002C37.4547 3.19874 43.6717 0.77159 50.1899 0.180018C56.7073 -0.462118 63.2764 0.68575 69.1899 3.50002C76.05 6.78482 81.6149 12.2688 84.9999 19.08C86.4616 18.8476 87.9398 18.7339 89.4199 18.74C92.5958 18.7146 95.7417 19.3556 98.6544 20.6217C101.567 21.8877 104.182 23.7506 106.33 26.09C107.36 27.2086 108.294 28.413 109.12 29.69C112.145 34.6705 113.675 40.4148 113.53 46.24C113.46 52.07 111.89 57.87 108.68 62.15C106.521 64.967 103.796 67.3004 100.68 69C97.2872 70.8296 93.6554 72.176 89.8899 73L89.1299 73.09H86.1299V66.29H88.7999C91.7964 65.6175 94.6867 64.5374 97.3899 63.08C99.6828 61.8417 101.692 60.1388 103.29 58.08C105.6 55.01 106.74 50.65 106.79 46.19C106.928 41.6908 105.776 37.246 103.47 33.38C102.856 32.4336 102.163 31.5404 101.4 30.71C99.8747 29.0528 98.0184 27.7344 95.9512 26.8404C93.884 25.9463 91.652 25.4965 89.3999 25.52C86.0827 25.5485 82.8085 26.2742 79.7899 27.65H79.7299ZM59.5499 110.65C59.1638 110.263 58.7053 109.956 58.2006 109.747C57.6959 109.537 57.1549 109.429 56.6084 109.429C56.062 109.428 55.5207 109.535 55.0157 109.744C54.5106 109.953 54.0516 110.259 53.6649 110.645C53.2782 111.031 52.9712 111.49 52.7617 111.994C52.5521 112.499 52.444 113.04 52.4436 113.586C52.4431 114.133 52.5503 114.674 52.759 115.179C52.9677 115.684 53.2738 116.143 53.6599 116.53C54.046 116.917 54.5045 117.224 55.0092 117.433C55.5139 117.643 56.0549 117.751 56.6014 117.751C57.1478 117.752 57.689 117.645 58.1941 117.436C58.6992 117.227 59.1582 116.921 59.5449 116.535C59.9316 116.149 60.2385 115.69 60.4481 115.186C60.6577 114.681 60.7658 114.14 60.7662 113.594C60.7667 113.047 60.6595 112.506 60.4508 112.001C60.2421 111.496 59.936 111.037 59.5499 110.65ZM61.4199 87.6C61.4199 88.619 61.1176 89.6151 60.5513 90.4622C59.9849 91.3094 59.18 91.9695 58.2384 92.3589C57.2968 92.7484 56.2608 92.8498 55.2615 92.6503C54.2622 92.4508 53.3446 91.9593 52.6248 91.2381C51.9049 90.5168 51.4152 89.5982 51.2176 88.5986C51.0201 87.5989 51.1235 86.5631 51.5148 85.6223C51.9061 84.6814 52.5678 83.8778 53.416 83.3131C54.2642 82.7484 55.2609 82.448 56.2799 82.45C56.9557 82.45 57.6249 82.5833 58.2492 82.8422C58.8735 83.1012 59.4405 83.4807 59.918 83.959C60.3954 84.4374 60.7738 85.0052 61.0315 85.63C61.2892 86.2547 61.4212 86.9242 61.4199 87.6ZM68.3499 53.16V57.48H45.1999V53.16H68.3499ZM68.3499 65.16V69.48H45.1999V65.12L68.3499 65.16Z" fill="#E03A3C"/>
</g>
<defs>
<clipPath id="clip0_62_39">
<rect width="113.52" height="122.88" fill="white"/>
</clipPath>
</defs>
</svg>
