<svg width="109" height="112" viewBox="0 0 109 112" fill="none" xmlns="http://www.w3.org/2000/svg">
<g clip-path="url(#clip0_62_62)">
<path d="M27.1258 54.092C30.4345 60.0618 34.2488 65.7921 39.2162 71.0256C44.1837 76.2858 50.3575 81.0758 58.3675 85.1562C58.9618 85.449 59.5207 85.449 60.0263 85.245C60.798 84.9522 61.5609 84.3313 62.3326 83.5596C62.9269 82.9652 63.6631 82.025 64.4349 80.9871C67.5129 76.9422 71.3183 71.9127 76.7027 74.423C76.818 74.4851 76.9067 74.5383 77.0309 74.6004L94.9669 84.9167C95.029 84.9434 95.0823 85.0055 95.1444 85.0321C97.5128 86.6554 98.4885 89.1657 98.5151 92.0042C98.5151 94.9049 97.4507 98.1514 95.8806 100.901C93.8138 104.538 90.7712 106.933 87.2497 108.53C83.9055 110.064 80.1888 110.898 76.6051 111.431C70.9901 112.255 65.73 111.723 60.3456 110.073C55.0854 108.45 49.7898 105.762 43.9974 102.179L43.5805 101.913C40.9193 100.254 38.0542 98.4797 35.2422 96.3862C24.9437 88.6157 14.4499 77.3857 7.61969 65.0292C1.88938 54.6508 -1.25075 43.4563 0.470111 32.7852C1.41925 26.9307 3.92958 21.6173 8.30271 18.0957C12.117 15.0177 17.2619 13.3411 23.9058 13.9266C24.6776 13.9887 25.3517 14.4322 25.7065 15.0798L37.2026 34.5238C38.888 36.7148 39.092 38.8703 38.1784 41.0258C37.4066 42.7999 35.8721 44.4232 33.7786 45.9578C33.1577 46.49 32.4214 47.0222 31.6497 47.5811C29.0773 49.4438 26.15 51.5994 27.1613 54.1452L27.1258 54.092ZM66.4928 0C63.2906 0 60.5496 1.12655 58.2699 3.37964C55.9902 5.63273 54.8903 8.3737 54.8903 11.6025V31.9691C54.8903 35.1979 56.0168 37.9389 58.2699 40.192C60.523 42.4451 63.264 43.5716 66.4928 43.5716H76.0285C75.3633 46.1352 74.5383 48.5657 73.5182 50.8454C72.5158 53.1517 70.8039 55.3516 68.4443 57.4539C72.9771 56.2741 77.0043 54.5089 80.5613 52.1759C84.1007 49.8696 87.1698 46.9779 89.7068 43.5627H97.3974C100.6 43.5627 103.341 42.4096 105.62 40.1831C107.9 37.93 109 35.189 109 31.9602V11.6025C109 8.40031 107.873 5.65934 105.62 3.37964C103.367 1.09993 100.617 0 97.3974 0C87.09 0 76.7914 0 66.4928 0ZM80.8541 30.7361H65.5259C65.7034 29.1039 66.2356 27.5693 67.1226 26.1323C68.0097 24.6953 69.6773 22.9922 72.1255 21.0318C73.6247 19.8343 74.5827 18.9207 75.0084 18.2997C75.4254 17.6788 75.6382 17.0845 75.6382 16.5256C75.6382 15.9224 75.4342 15.3991 75.0173 14.9733C74.6004 14.5475 74.0771 14.3346 73.4473 14.3346C72.7997 14.3346 72.2586 14.5564 71.8506 14.9999C71.4337 15.4523 71.1587 16.2329 71.0167 17.3595L65.9074 16.9071C66.1114 15.3547 66.4751 14.1395 67.0073 13.2702C67.5395 12.4009 68.2935 11.7356 69.2693 11.2655C70.245 10.7953 71.5933 10.5647 73.3142 10.5647C75.1149 10.5647 76.5075 10.7865 77.5099 11.23C78.5034 11.6646 79.2929 12.3477 79.8606 13.2613C80.4372 14.1838 80.721 15.2039 80.721 16.3394C80.721 17.5457 80.3928 18.6989 79.7364 19.8077C79.08 20.9076 77.8913 22.114 76.1527 23.4357C75.1238 24.1986 74.4407 24.7397 74.0948 25.0501C73.7488 25.3606 73.3408 25.7598 72.8707 26.2565H80.8452V30.7361H80.8541ZM91.8091 27.0194H82.5217V22.4866L91.8091 10.5558H96.2532V22.7527H98.5595V27.0194H96.2532V30.7361H91.8091V27.0194ZM91.8091 22.7527V16.4902L86.9037 22.7527H91.8091Z" fill="#E03A3C"/>
</g>
<defs>
<clipPath id="clip0_62_62">
<rect width="109" height="111.812" fill="white"/>
</clipPath>
</defs>
</svg>
