<svg width="123" height="84" viewBox="0 0 123 84" fill="none" xmlns="http://www.w3.org/2000/svg">
<path d="M106.79 49.54H102.26V45.01H106.79V49.54ZM70.91 33.65C70.81 33.65 70.72 33.66 70.62 33.66H1.62C1.52 33.66 1.42 33.66 1.33 33.65C1 33.71 0.7 33.87 0.48 34.1C0.18 34.39 0 34.8 0 35.24V54.51C0 54.95 0.18 55.36 0.48 55.65C0.78 55.94 1.18 56.13 1.62 56.13H70.62C71.06 56.13 71.47 55.94 71.76 55.65C72.06 55.36 72.24 54.95 72.24 54.51V35.24C72.24 34.8 72.06 34.4 71.76 34.1C71.53 33.87 71.24 33.71 70.91 33.65ZM63.4 39.19L64.49 40.28C64.78 40.57 64.78 41.04 64.49 41.33L63.61 42.21C63.86 42.67 64.04 43.16 64.16 43.67H65.3C65.71 43.67 66.04 44 66.04 44.41V45.96C66.04 46.37 65.71 46.7 65.3 46.7H64.05C63.9 47.2 63.68 47.68 63.4 48.12L64.21 48.93C64.5 49.22 64.5 49.69 64.21 49.98L63.12 51.07C62.83 51.36 62.36 51.36 62.07 51.07L61.19 50.19C60.73 50.44 60.24 50.62 59.73 50.74V51.88C59.73 52.29 59.4 52.62 58.99 52.62H57.44C57.03 52.62 56.7 52.29 56.7 51.88V50.63C56.2 50.48 55.72 50.26 55.28 49.98L54.47 50.79C54.18 51.08 53.71 51.08 53.42 50.79L52.33 49.7C52.04 49.41 52.04 48.94 52.33 48.65L53.21 47.77C52.96 47.31 52.78 46.82 52.66 46.31H51.52C51.11 46.31 50.78 45.98 50.78 45.57V44.02C50.78 43.61 51.11 43.28 51.52 43.28H52.77C52.92 42.78 53.14 42.3 53.42 41.86L52.61 41.05C52.32 40.76 52.32 40.29 52.61 40L53.7 38.91C53.99 38.62 54.46 38.62 54.75 38.91L55.63 39.79C56.08 39.55 56.57 39.36 57.09 39.24V38.1C57.09 37.69 57.42 37.36 57.83 37.36H59.38C59.79 37.36 60.12 37.69 60.12 38.1V39.35C60.62 39.5 61.1 39.72 61.54 40L62.35 39.19C62.64 38.9 63.11 38.9 63.4 39.19ZM58.41 41.94C60.09 41.94 61.45 43.3 61.45 44.98C61.45 46.66 60.09 48.02 58.41 48.02C56.73 48.02 55.37 46.66 55.37 44.98C55.37 43.31 56.73 41.94 58.41 41.94ZM70.91 61.32C70.81 61.32 70.72 61.33 70.62 61.33H1.62C1.52 61.33 1.42 61.33 1.33 61.32C1 61.38 0.7 61.55 0.48 61.77C0.18 62.07 0 62.47 0 62.91V82.18C0 82.62 0.18 83.03 0.48 83.32C0.78 83.61 1.18 83.8 1.62 83.8H70.62C71.06 83.8 71.47 83.61 71.76 83.32C72.06 83.03 72.24 82.62 72.24 82.18V62.91C72.24 62.47 72.06 62.07 71.76 61.77C71.53 61.55 71.24 61.38 70.91 61.32ZM6.87 67.3H10.92V77.79H6.87V67.3ZM18.08 67.3H22.13V77.79H18.08V67.3ZM29.29 67.3H33.34V77.79H29.29V67.3ZM6.87 39.63H10.92V50.12H6.87V39.63ZM18.08 39.63H22.13V50.12H18.08V39.63ZM29.29 39.63H33.34V50.12H29.29V39.63ZM118.88 26.7C118.93 26.7 118.99 26.7 119.03 26.71C119.37 26.12 119.68 25.49 119.97 24.83C119.98 24.82 119.98 24.81 119.99 24.8C120.41 23.8 120.74 22.77 120.95 21.69C121.11 20.85 121.22 20.01 121.26 19.13H116.22C116.13 21.69 115.36 24.21 113.94 26.7H118.88ZM118 28.31H112.93C111.39 30.54 109.31 32.74 106.72 34.92C107.13 34.86 107.53 34.8 107.93 34.72C109.02 34.5 110.06 34.18 111.08 33.74C112.1 33.3 113.06 32.78 113.95 32.19C114.84 31.6 115.65 30.93 116.41 30.17C116.99 29.59 117.53 28.97 118.02 28.31H118ZM102.39 34.92C99.79 32.74 97.72 30.54 96.18 28.31H91.11C91.59 28.97 92.13 29.59 92.72 30.17C93.48 30.93 94.29 31.6 95.18 32.19C96.06 32.78 97.02 33.3 98.05 33.74C98.06 33.75 98.07 33.75 98.08 33.76C99.08 34.18 100.11 34.51 101.19 34.72C101.59 34.8 101.99 34.86 102.4 34.92H102.39ZM90.05 26.7H95.15C93.73 24.21 92.96 21.69 92.87 19.13H87.83C87.87 20.01 87.97 20.86 88.14 21.69C88.36 22.78 88.68 23.82 89.12 24.84C89.4 25.49 89.71 26.11 90.05 26.7ZM87.84 17.53H92.91C93.1 15.02 93.93 12.5 95.42 9.96H90.05C89.71 10.55 89.4 11.17 89.13 11.82C89.12 11.83 89.12 11.84 89.11 11.85C88.69 12.85 88.36 13.88 88.15 14.96C87.98 15.8 87.87 16.65 87.84 17.53ZM91.1 8.36H96.46C97.99 6.16 100 3.95 102.51 1.73C102.06 1.78 101.62 1.85 101.19 1.94C100.1 2.16 99.06 2.48 98.04 2.92C97.02 3.36 96.06 3.88 95.17 4.47C94.28 5.06 93.47 5.73 92.71 6.49C92.13 7.07 91.59 7.69 91.1 8.35V8.36ZM106.59 1.73C109.11 3.95 111.12 6.16 112.64 8.36H118C117.52 7.7 116.98 7.08 116.39 6.5C115.63 5.74 114.82 5.07 113.93 4.48C113.05 3.89 112.09 3.37 111.06 2.93C111.05 2.92 111.04 2.92 111.03 2.91C110.03 2.49 109 2.16 107.92 1.95C107.48 1.86 107.04 1.8 106.6 1.74V1.73H106.59ZM119.04 9.96H113.67C115.15 12.5 115.99 15.02 116.18 17.53H121.25C121.21 16.65 121.11 15.8 120.94 14.97C120.72 13.88 120.4 12.84 119.96 11.82C119.69 11.17 119.38 10.56 119.04 9.96ZM100.86 0.36C102.05 0.12 103.28 0 104.54 0C105.8 0 107.03 0.12 108.22 0.36C109.4 0.59 110.53 0.94 111.64 1.42C111.65 1.42 111.67 1.43 111.68 1.44C112.78 1.91 113.82 2.48 114.8 3.13C115.78 3.78 116.68 4.53 117.51 5.35C118.35 6.17 119.08 7.08 119.73 8.06C120.39 9.04 120.95 10.08 121.42 11.18C121.9 12.3 122.26 13.46 122.5 14.64C122.74 15.83 122.86 17.06 122.86 18.32C122.86 19.58 122.74 20.81 122.5 22C122.27 23.18 121.92 24.31 121.44 25.42C121.44 25.43 121.43 25.45 121.42 25.46C120.95 26.57 120.38 27.6 119.73 28.58C119.08 29.56 118.33 30.46 117.51 31.29C116.69 32.13 115.78 32.86 114.8 33.51C113.82 34.17 112.78 34.73 111.68 35.2C110.56 35.68 109.4 36.04 108.22 36.28C107.03 36.52 105.8 36.64 104.54 36.64C103.28 36.64 102.05 36.52 100.86 36.28C99.68 36.05 98.55 35.7 97.44 35.22C97.43 35.22 97.41 35.21 97.4 35.2C96.3 34.73 95.26 34.16 94.28 33.51C93.3 32.86 92.4 32.11 91.57 31.29C90.73 30.47 90 29.56 89.35 28.58C88.69 27.6 88.13 26.56 87.66 25.46C87.18 24.34 86.82 23.18 86.58 22C86.34 20.81 86.22 19.58 86.22 18.32C86.22 17.06 86.34 15.83 86.58 14.64C86.81 13.46 87.16 12.33 87.64 11.22C87.64 11.21 87.65 11.19 87.66 11.18C88.13 10.07 88.7 9.04 89.35 8.06C90 7.08 90.75 6.18 91.57 5.35C92.39 4.51 93.3 3.78 94.28 3.13C95.26 2.47 96.3 1.91 97.4 1.44C98.52 0.96 99.67 0.6 100.86 0.36ZM105.35 2.77V8.36H110.67C109.28 6.51 107.51 4.65 105.35 2.77ZM105.35 9.96V17.53H114.58C114.37 15.04 113.45 12.53 111.8 9.96H105.35ZM105.35 19.14V26.71H112.07C113.66 24.2 114.51 21.68 114.61 19.14H105.35ZM105.35 28.31V33.96C107.63 32.09 109.5 30.2 110.95 28.31H105.35ZM103.74 33.96V28.31H98.14C99.59 30.2 101.46 32.09 103.74 33.96ZM103.74 26.7V19.13H94.48C94.58 21.67 95.44 24.19 97.02 26.7H103.74ZM103.74 17.53V9.96H97.3C95.65 12.52 94.73 15.04 94.52 17.53H103.74ZM103.74 8.36V2.77C101.58 4.65 99.81 6.51 98.42 8.36H103.74ZM25.24 22.54H20.71V18.01H25.24V22.54ZM25.24 13.47H20.71V11.04V8.78H22.98H25.09V11.05H25.25V13.47H25.24ZM29.61 13.31V8.78H34.14V13.31H29.61ZM38.68 13.31V8.78H43.21V13.31H38.68ZM47.75 13.31V8.78H52.28V13.31H47.75ZM56.82 13.31V8.78H61.35V13.31H56.82ZM65.89 13.31V8.78H70.42V13.31H65.89ZM74.96 13.31V8.78H79.49V13.31H74.96ZM83.67 76.3V71.77H88.2V76.3H83.67ZM92.74 76.3V71.77H97.27V76.3H92.74ZM101.81 76.3V71.77H104.52V72.21H106.79V74.03V76.3H104.52H101.81ZM106.79 67.68H102.26V63.15H106.79V67.68ZM106.79 58.61H102.26V54.08H106.79V58.61Z" fill="#E03A3C"/>
</svg>
