<svg width="106" height="108" viewBox="0 0 106 108" fill="none" xmlns="http://www.w3.org/2000/svg">
<g clip-path="url(#clip0_62_62)">
<path d="M26.1549 52.1559C29.3452 57.9121 33.0229 63.4373 37.8126 68.4835C42.6023 73.5554 48.5551 78.174 56.2784 82.1084C56.8515 82.3906 57.3903 82.3906 57.8778 82.1939C58.6219 81.9116 59.3575 81.3129 60.1016 80.5688C60.6746 79.9958 61.3845 79.0892 62.1287 78.0885C65.0965 74.1883 68.7657 69.3388 73.9574 71.7593C74.0686 71.8192 74.1541 71.8705 74.2738 71.9303L91.5679 81.8774C91.6278 81.9031 91.6791 81.963 91.739 81.9886C94.0226 83.5538 94.9635 85.9743 94.9891 88.7112C94.9891 91.5081 93.9628 94.6384 92.4489 97.2899C90.456 100.797 87.5224 103.106 84.1269 104.645C80.9024 106.125 77.3187 106.929 73.8633 107.442C68.4493 108.238 63.3774 107.724 58.1857 106.134C53.1138 104.568 48.0077 101.977 42.4226 98.5215L42.0207 98.2649C39.4548 96.6655 36.6922 94.9549 33.9809 92.9364C24.0509 85.444 13.9327 74.616 7.34696 62.7017C1.82175 52.6947 -1.206 41.9009 0.453276 31.6117C1.36844 25.9668 3.78893 20.8435 8.00554 17.448C11.6833 14.4802 16.644 12.8636 23.0502 13.4281C23.7943 13.488 24.4443 13.9157 24.7864 14.54L35.8711 33.2881C37.4961 35.4007 37.6929 37.479 36.8119 39.5574C36.0678 41.268 34.5881 42.8332 32.5696 44.3129C31.9709 44.826 31.261 45.3392 30.5169 45.878C28.0366 47.6742 25.2141 49.7525 26.1891 52.2072L26.1549 52.1559ZM64.1129 0C61.0253 0 58.3825 1.08623 56.1843 3.25868C53.9862 5.43113 52.9257 8.07399 52.9257 11.1873V30.8248C52.9257 33.9381 54.0119 36.581 56.1843 38.7534C58.3568 40.9259 60.9997 42.0121 64.1129 42.0121H73.3074C72.6659 44.4839 71.8705 46.8274 70.8869 49.0255C69.9204 51.2493 68.2697 53.3704 65.9946 55.3975C70.3652 54.2599 74.2482 52.5579 77.6779 50.3085C81.0906 48.0847 84.0499 45.2964 86.496 42.0036H93.9114C96.9991 42.0036 99.6419 40.8917 101.84 38.7449C104.038 36.5724 105.099 33.9296 105.099 30.8163V11.1873C105.099 8.09965 104.012 5.45678 101.84 3.25868C99.6676 1.06057 97.0162 0 93.9114 0C83.9729 0 74.0429 0 64.1129 0ZM77.9602 29.636H63.1807C63.3517 28.0622 63.8649 26.5826 64.7202 25.197C65.5755 23.8114 67.1834 22.1693 69.5441 20.2791C70.9895 19.1244 71.9132 18.2435 72.3238 17.6447C72.7258 17.046 72.931 16.473 72.931 15.9342C72.931 15.3526 72.7343 14.8479 72.3323 14.4374C71.9303 14.0268 71.4257 13.8216 70.8185 13.8216C70.1941 13.8216 69.6724 14.0354 69.2789 14.463C68.8769 14.8992 68.6118 15.6519 68.4749 16.7381L63.5484 16.3019C63.7452 14.8052 64.0958 13.6334 64.609 12.7952C65.1222 11.957 65.8492 11.3156 66.79 10.8623C67.7308 10.4089 69.0309 10.1866 70.6902 10.1866C72.4264 10.1866 73.7692 10.4004 74.7357 10.828C75.6936 11.2471 76.4549 11.9057 77.0022 12.7867C77.5582 13.6762 77.8319 14.6598 77.8319 15.7545C77.8319 16.9177 77.5154 18.0296 76.8825 19.0987C76.2496 20.1593 75.1035 21.3225 73.4271 22.5969C72.435 23.3325 71.7764 23.8542 71.4428 24.1535C71.1093 24.4529 70.7158 24.8378 70.2625 25.3167H77.9516V29.636H77.9602ZM88.5231 26.0523H79.5681V21.6817L88.5231 10.178H92.8081V21.9383H95.0319V26.0523H92.8081V29.636H88.5231V26.0523ZM88.5231 21.9383V15.8999L83.7933 21.9383H88.5231Z" fill="#E03A3C"/>
</g>
<defs>
<clipPath id="clip0_62_62">
<rect width="105.099" height="107.81" fill="white"/>
</clipPath>
</defs>
</svg>
