<svg width="142" height="151" viewBox="0 0 142 151" fill="none" xmlns="http://www.w3.org/2000/svg">
<g clip-path="url(#clip0_62_9)">
<path fill-rule="evenodd" clip-rule="evenodd" d="M131.177 45.3085C128.655 47.9256 125.718 50.2613 122.42 52.1568C122.019 52.4381 121.463 52.4747 121.01 52.1935C116.146 49.2707 112.046 45.7488 108.838 41.9211C104.401 36.6626 101.607 30.8294 100.65 25.2163C99.6795 19.5176 100.585 14.039 103.586 9.57541C104.776 7.82666 106.289 6.21243 108.126 4.83055C112.356 1.65101 117.181 -0.0365896 122.006 9.74296e-05C126.637 0.0367844 131.216 1.66324 135.174 5.07513C136.571 6.27358 137.735 7.63099 138.693 9.12293C141.914 14.1491 142.612 20.5448 141.189 27.0384C139.792 33.4586 136.325 39.9767 131.177 45.3085ZM30.8892 112.58C28.3668 115.197 25.4304 117.533 22.1319 119.429C21.7309 119.71 21.1747 119.746 20.7219 119.465C15.8582 116.53 11.7577 113.021 8.54975 109.193C4.12585 103.947 1.3318 98.1134 0.374586 92.488C-0.595568 86.7893 0.309909 81.3107 3.31092 76.8594C4.48804 75.0984 6.00148 73.4964 7.85124 72.1145C12.0811 68.935 16.906 67.2474 21.718 67.2841C26.3488 67.3208 30.928 68.9472 34.8862 72.3591C36.2832 73.5575 37.4474 74.915 38.4046 76.4069C41.6255 81.433 42.324 87.8288 40.9011 94.3224C39.5041 100.73 36.0374 107.248 30.8892 112.58ZM22.0802 126.008C27.914 126.008 32.8424 129.701 34.3946 134.739H111.968C115.797 134.739 119.29 133.26 121.825 130.863C124.36 128.466 125.925 125.176 125.925 121.544C125.925 117.924 124.36 114.623 121.825 112.226C119.29 109.829 115.81 108.349 111.968 108.349H84.8297C78.7371 108.349 73.2008 106.001 69.1908 102.21C65.1809 98.4191 62.6973 93.1851 62.6973 87.4252C62.6973 81.6654 65.1809 76.4314 69.1908 72.6404C73.2008 68.8494 78.7371 66.5014 84.8297 66.5014H109.368C111.05 61.6587 115.875 58.1612 121.553 58.1612C128.642 58.1612 134.385 63.5909 134.385 70.2924C134.385 76.9939 128.642 82.4236 121.553 82.4236C115.926 82.4236 111.153 78.9994 109.42 74.2424H84.8297C81.0008 74.2424 77.5083 75.7221 74.9729 78.119C72.4376 80.5158 70.8724 83.8054 70.8724 87.4375C70.8724 91.0572 72.4376 94.3591 74.9729 96.756C77.4824 99.1284 80.9362 100.608 84.7392 100.633H111.981C118.074 100.633 123.61 102.981 127.62 106.772C131.63 110.562 134.114 115.797 134.114 121.556C134.114 127.316 131.63 132.55 127.62 136.341C123.61 140.132 118.074 142.48 111.981 142.48H34.0713C32.2215 147.042 27.5518 150.27 22.0802 150.27C14.9916 150.27 9.24826 144.84 9.24826 138.139C9.24826 131.437 14.9916 126.008 22.0802 126.008ZM20.7996 77.4097C26.517 77.4097 31.1479 81.7877 31.1479 87.1929C31.1479 92.5981 26.517 96.9761 20.7996 96.9761C15.0821 96.9761 10.4512 92.5981 10.4512 87.1929C10.4512 81.7877 15.0821 77.4097 20.7996 77.4097ZM121.088 10.1257C126.805 10.1257 131.436 14.5037 131.436 19.9089C131.436 25.3141 126.805 29.6921 121.088 29.6921C115.37 29.6921 110.739 25.3141 110.739 19.9089C110.739 14.5037 115.37 10.1257 121.088 10.1257Z" fill="#E03A3C"/>
</g>
<defs>
<clipPath id="clip0_62_9">
<rect width="141.888" height="150.27" fill="white"/>
</clipPath>
</defs>
</svg>
