<svg width="170" height="116" viewBox="0 0 170 116" fill="none" xmlns="http://www.w3.org/2000/svg">
<path d="M147.569 68.4574H141.309V62.1976H147.569V68.4574ZM97.9878 46.4996C97.8496 46.4996 97.7252 46.5135 97.5871 46.5135H2.23862C2.10043 46.5135 1.96224 46.5135 1.83788 46.4996C1.38186 46.5826 0.967303 46.8036 0.663293 47.1215C0.248735 47.5222 0 48.0888 0 48.6968V75.3253C0 75.9333 0.248735 76.4999 0.663293 76.9006C1.07785 77.3013 1.6306 77.5639 2.23862 77.5639H97.5871C98.1951 77.5639 98.7616 77.3013 99.1624 76.9006C99.5769 76.4999 99.8257 75.9333 99.8257 75.3253V48.6968C99.8257 48.0888 99.5769 47.536 99.1624 47.1215C98.8446 46.8036 98.4438 46.5826 97.9878 46.4996ZM87.61 54.1552L89.1162 55.6614C89.517 56.0621 89.517 56.7116 89.1162 57.1123L87.9002 58.3284C88.2457 58.964 88.4944 59.6411 88.6602 60.3459H90.2356C90.8021 60.3459 91.2581 60.8019 91.2581 61.3685V63.5104C91.2581 64.0769 90.8021 64.5329 90.2356 64.5329H88.5082C88.301 65.2239 87.9969 65.8872 87.61 66.4952L88.7293 67.6145C89.1301 68.0152 89.1301 68.6647 88.7293 69.0654L87.2231 70.5717C86.8224 70.9724 86.1729 70.9724 85.7721 70.5717L84.5561 69.3556C83.9204 69.7011 83.2433 69.9498 82.5386 70.1157V71.691C82.5386 72.2575 82.0826 72.7136 81.516 72.7136H79.3741C78.8076 72.7136 78.3515 72.2575 78.3515 71.691V69.9637C77.6606 69.7564 76.9973 69.4524 76.3893 69.0654L75.27 70.1848C74.8693 70.5855 74.2198 70.5855 73.819 70.1848L72.3128 68.6785C71.9121 68.2778 71.9121 67.6283 72.3128 67.2276L73.5288 66.0115C73.1834 65.3759 72.9346 64.6988 72.7688 63.994H71.1935C70.6269 63.994 70.1709 63.538 70.1709 62.9714V60.8295C70.1709 60.263 70.6269 59.807 71.1935 59.807H72.9208C73.1281 59.116 73.4321 58.4527 73.819 57.8447L72.6997 56.7254C72.299 56.3247 72.299 55.6752 72.6997 55.2745L74.206 53.7682C74.6067 53.3675 75.2562 53.3675 75.6569 53.7682L76.873 54.9843C77.4948 54.6526 78.1719 54.3901 78.8905 54.2243V52.6489C78.8905 52.0824 79.3465 51.6263 79.9131 51.6263H82.0549C82.6215 51.6263 83.0775 52.0824 83.0775 52.6489V54.3763C83.7684 54.5835 84.4317 54.8875 85.0398 55.2745L86.1591 54.1552C86.5598 53.7544 87.2093 53.7544 87.61 54.1552ZM80.7145 57.9553C83.0361 57.9553 84.9154 59.8346 84.9154 62.1561C84.9154 64.4777 83.0361 66.357 80.7145 66.357C78.393 66.357 76.5137 64.4777 76.5137 62.1561C76.5137 59.8484 78.393 57.9553 80.7145 57.9553ZM97.9878 84.7358C97.8496 84.7358 97.7252 84.7496 97.5871 84.7496H2.23862C2.10043 84.7496 1.96224 84.7496 1.83788 84.7358C1.38186 84.8187 0.967303 85.0536 0.663293 85.3576C0.248735 85.7721 0 86.3249 0 86.9329V113.561C0 114.169 0.248735 114.736 0.663293 115.137C1.07785 115.537 1.6306 115.8 2.23862 115.8H97.5871C98.1951 115.8 98.7616 115.537 99.1624 115.137C99.5769 114.736 99.8257 114.169 99.8257 113.561V86.9329C99.8257 86.3249 99.5769 85.7721 99.1624 85.3576C98.8446 85.0536 98.4438 84.8187 97.9878 84.7358ZM9.49339 92.9993H15.0899V107.495H9.49339V92.9993ZM24.9841 92.9993H30.5806V107.495H24.9841V92.9993ZM40.4747 92.9993H46.0713V107.495H40.4747V92.9993ZM9.49339 54.7632H15.0899V69.2589H9.49339V54.7632ZM24.9841 54.7632H30.5806V69.2589H24.9841V54.7632ZM40.4747 54.7632H46.0713V69.2589H40.4747V54.7632ZM164.276 36.8957C164.345 36.8957 164.428 36.8957 164.483 36.9095C164.953 36.0942 165.381 35.2237 165.782 34.3116C165.796 34.2978 165.796 34.284 165.81 34.2702C166.39 32.8883 166.846 31.465 167.136 29.9726C167.357 28.8118 167.509 27.651 167.565 26.435H160.6C160.476 29.9726 159.412 33.4549 157.449 36.8957H164.276ZM163.06 39.1205H156.054C153.926 42.2021 151.051 45.2421 147.472 48.2546C148.039 48.1717 148.592 48.0888 149.144 47.9782C150.651 47.6742 152.088 47.232 153.497 46.624C154.907 46.016 156.233 45.2974 157.463 44.4821C158.693 43.6668 159.812 42.741 160.862 41.6908C161.664 40.8893 162.41 40.0325 163.087 39.1205H163.06ZM141.489 48.2546C137.896 45.2421 135.036 42.2021 132.907 39.1205H125.901C126.565 40.0325 127.311 40.8893 128.126 41.6908C129.176 42.741 130.296 43.6668 131.526 44.4821C132.742 45.2974 134.068 46.016 135.492 46.624C135.505 46.6378 135.519 46.6378 135.533 46.6516C136.915 47.232 138.338 47.688 139.831 47.9782C140.383 48.0888 140.936 48.1717 141.503 48.2546H141.489ZM124.437 36.8957H131.484C129.522 33.4549 128.458 29.9726 128.333 26.435H121.369C121.424 27.651 121.562 28.8256 121.797 29.9726C122.101 31.4788 122.543 32.9159 123.151 34.3254C123.538 35.2237 123.967 36.0804 124.437 36.8957ZM121.383 24.224H128.389C128.651 20.7556 129.798 17.2733 131.857 13.7633H124.437C123.967 14.5786 123.538 15.4354 123.165 16.3336C123.151 16.3474 123.151 16.3612 123.138 16.3751C122.557 17.7569 122.101 19.1802 121.811 20.6726C121.576 21.8334 121.424 23.008 121.383 24.224ZM125.888 11.5524H133.294C135.409 8.51227 138.186 5.45835 141.655 2.39062C141.033 2.45971 140.425 2.55644 139.831 2.68081C138.324 2.98482 136.887 3.42702 135.478 4.03504C134.068 4.64305 132.742 5.36162 131.512 6.17692C130.282 6.99222 129.163 7.91807 128.112 8.96828C127.311 9.76976 126.565 10.6265 125.888 11.5385V11.5524ZM147.293 2.39062C150.775 5.45835 153.552 8.51227 155.653 11.5524H163.06C162.396 10.6403 161.65 9.78358 160.835 8.9821C159.785 7.93189 158.665 7.00604 157.435 6.19074C156.219 5.37544 154.893 4.65687 153.47 4.04885C153.456 4.03504 153.442 4.03504 153.428 4.02122C152.046 3.44084 150.623 2.98482 149.13 2.69463C148.522 2.57026 147.914 2.48735 147.306 2.40444V2.39062H147.293ZM164.497 13.7633H157.076C159.121 17.2733 160.282 20.7556 160.545 24.224H167.551C167.495 23.008 167.357 21.8334 167.122 20.6865C166.818 19.1802 166.376 17.7431 165.768 16.3336C165.395 15.4354 164.967 14.5925 164.497 13.7633ZM139.375 0.49747C141.019 0.165823 142.719 0 144.46 0C146.201 0 147.901 0.165823 149.545 0.49747C151.176 0.815298 152.737 1.29895 154.271 1.96224C154.285 1.96224 154.312 1.97606 154.326 1.98988C155.846 2.63936 157.283 3.42702 158.638 4.32523C159.992 5.22344 161.236 6.25983 162.383 7.39296C163.543 8.52609 164.552 9.78358 165.45 11.1378C166.362 12.492 167.136 13.9292 167.786 15.4492C168.449 16.9969 168.946 18.5999 169.278 20.2305C169.61 21.8749 169.775 23.5746 169.775 25.3157C169.775 27.0568 169.61 28.7565 169.278 30.401C168.96 32.0316 168.477 33.5931 167.813 35.1269C167.813 35.1407 167.799 35.1684 167.786 35.1822C167.136 36.7161 166.348 38.1394 165.45 39.4936C164.552 40.8478 163.516 42.0915 162.383 43.2384C161.249 44.3992 159.992 45.408 158.638 46.3062C157.283 47.2182 155.846 47.9921 154.326 48.6415C152.779 49.3048 151.176 49.8023 149.545 50.1339C147.901 50.4656 146.201 50.6314 144.46 50.6314C142.719 50.6314 141.019 50.4656 139.375 50.1339C137.744 49.8161 136.182 49.3325 134.649 48.6692C134.635 48.6692 134.607 48.6553 134.593 48.6415C133.073 47.9921 131.636 47.2044 130.282 46.3062C128.928 45.408 127.684 44.3716 126.537 43.2384C125.376 42.1053 124.368 40.8478 123.469 39.4936C122.557 38.1394 121.783 36.7022 121.134 35.1822C120.471 33.6345 119.973 32.0316 119.642 30.401C119.31 28.7565 119.144 27.0568 119.144 25.3157C119.144 23.5746 119.31 21.8749 119.642 20.2305C119.959 18.5999 120.443 17.0384 121.106 15.5045C121.106 15.4907 121.12 15.463 121.134 15.4492C121.783 13.9153 122.571 12.492 123.469 11.1378C124.368 9.78358 125.404 8.5399 126.537 7.39296C127.67 6.2322 128.928 5.22344 130.282 4.32523C131.636 3.4132 133.073 2.63936 134.593 1.98988C136.141 1.32659 137.73 0.829117 139.375 0.49747ZM145.579 3.82776V11.5524H152.931C151.01 8.99592 148.564 6.42566 145.579 3.82776ZM145.579 13.7633V24.224H158.334C158.043 20.7832 156.772 17.3147 154.492 13.7633H145.579ZM145.579 26.4488V36.9095H154.865C157.062 33.441 158.237 29.9588 158.375 26.4488H145.579ZM145.579 39.1205V46.928C148.73 44.3439 151.314 41.7322 153.318 39.1205H145.579ZM143.354 46.928V39.1205H135.616C137.62 41.7322 140.204 44.3439 143.354 46.928ZM143.354 36.8957V26.435H130.558C130.696 29.9449 131.885 33.4272 134.068 36.8957H143.354ZM143.354 24.224V13.7633H134.455C132.175 17.3009 130.904 20.7832 130.614 24.224H143.354ZM143.354 11.5524V3.82776C140.369 6.42566 137.924 8.99592 136.003 11.5524H143.354ZM34.8782 31.1472H28.6183V24.8873H34.8782V31.1472ZM34.8782 18.6137H28.6183V15.2558V12.1327H31.7552H34.6709V15.2696H34.892V18.6137H34.8782ZM40.9169 18.3926V12.1327H47.1767V18.3926H40.9169ZM53.4504 18.3926V12.1327H59.7102V18.3926H53.4504ZM65.9839 18.3926V12.1327H72.2437V18.3926H65.9839ZM78.5174 18.3926V12.1327H84.7772V18.3926H78.5174ZM91.0508 18.3926V12.1327H97.3107V18.3926H91.0508ZM103.584 18.3926V12.1327H109.844V18.3926H103.584ZM115.62 105.436V99.1762H121.88V105.436H115.62ZM128.154 105.436V99.1762H134.414V105.436H128.154ZM140.687 105.436V99.1762H144.432V99.7842H147.569V102.299V105.436H144.432H140.687ZM147.569 93.5244H141.309V87.2646H147.569V93.5244ZM147.569 80.9909H141.309V74.7311H147.569V80.9909Z" fill="#E03A3C"/>
</svg>
