<svg width="145" height="104" viewBox="0 0 145 104" fill="none" xmlns="http://www.w3.org/2000/svg">
<g clip-path="url(#clip0_62_54)">
<path fill-rule="evenodd" clip-rule="evenodd" d="M36.1119 67.8728C33.9181 65.8908 32.2466 64.064 31.8569 59.7639L31.5746 59.7724C30.9196 59.7611 30.2871 59.6114 29.6998 59.2754C28.754 58.739 28.0905 57.8157 27.6415 56.7739C26.69 54.5885 25.9362 48.8456 28.3276 47.1996L27.8815 46.9031L27.8307 46.265C27.7375 45.1102 27.7121 43.7098 27.6924 42.2444C27.6048 36.8403 27.4947 32.7604 23.1523 31.4447L21.286 30.88L22.5142 29.3638C26.0265 25.0242 29.6914 21.2323 33.3929 18.3213C40.844 12.4514 50.0089 8.97574 58.2364 15.6306C59.3686 16.5426 60.4641 17.6381 61.5201 18.9256C74.1889 20.1566 80.2565 38.1532 70.2897 47.7868C70.86 47.8094 71.3993 47.9393 71.8737 48.1934C73.6835 49.1618 73.7428 51.2653 73.2656 53.0328C72.7969 54.5095 72.1983 56.2205 71.6365 57.6548C70.9504 59.5973 69.9509 59.9587 68.014 59.7498C67.9124 64.5468 66.2352 66.3425 63.2537 69.1603C62.6353 70.7725 62.5704 72.204 64.3915 73.6073C79.4433 85.189 100.876 78.8391 100.876 103.9H0C0 78.9774 20.2131 85.5335 35.6686 73.7202C37.8285 72.0656 38.348 69.8916 36.1119 67.8728ZM88.947 6.53345L84.6243 6.64357C82.8766 6.68027 81.4225 5.29679 81.383 3.54907C81.3463 1.80136 82.7298 0.350107 84.4775 0.310579L96.4743 0.00282345L96.5365 0H96.7115L96.7793 0.00564689H96.7906L96.8612 0.00847034L96.8724 0.0112938L96.9402 0.0169407H96.9515L97.0193 0.025411L97.0306 0.0282345L97.0983 0.0367048L97.1096 0.0395282L97.1746 0.050822L97.1858 0.0536455L97.2536 0.0649393L97.2649 0.0677627L97.3298 0.0818799L97.3411 0.0847034L97.4061 0.101644L97.4174 0.104468L97.4823 0.121408L97.4936 0.124232L97.5557 0.141172L97.567 0.146819L97.6291 0.166583L97.6404 0.17223L97.7025 0.191994L97.7138 0.197641L97.7731 0.220229L97.7844 0.225876L97.8437 0.251287L97.855 0.25411L97.9171 0.279521L97.9284 0.287992L97.9849 0.313403L97.9962 0.319049L98.0526 0.347284L98.0668 0.352931L98.1232 0.383989L98.1317 0.389636L98.1882 0.420694L98.1995 0.42634L98.2531 0.460222L98.2616 0.465869L98.3181 0.502573L98.3293 0.50822L98.383 0.542102L98.3915 0.550572L98.4451 0.587277L98.4536 0.592924L98.5072 0.629629L98.5157 0.638099L98.5665 0.677627L98.575 0.686097L98.6258 0.725626L98.6343 0.734096L98.6851 0.773624L98.6936 0.782095L98.7416 0.824446L98.75 0.832917L98.7952 0.875268L98.8065 0.883739L98.8517 0.928914L98.8573 0.937384L98.9053 0.985383L98.911 0.993853L98.9562 1.03903L98.9646 1.0475L99.007 1.0955L99.0154 1.10679L99.055 1.15479L99.0634 1.16326L99.103 1.21408L99.1114 1.22255L99.151 1.27337L99.1566 1.28184L99.1933 1.33549L99.2018 1.34396L99.2385 1.39761L99.2441 1.4089L99.278 1.46255L99.2865 1.47102L99.3204 1.52748L99.326 1.53878L99.3599 1.59242L99.3655 1.60372L99.3966 1.66019L99.4023 1.66866L99.4333 1.72795L99.439 1.73924L99.4644 1.79571L99.4728 1.80701L99.5011 1.8663L99.5039 1.87477L99.5293 1.93688L99.535 1.94818L99.5604 2.01029L99.5632 2.01876L99.5886 2.08088V2.09217L99.614 2.15429V2.16558L99.6366 2.2277L99.6394 2.23899L99.6592 2.30393L99.662 2.31523L99.679 2.38017L99.6818 2.39146L99.6987 2.4564L99.7015 2.46769L99.7128 2.53263L99.7157 2.54393L99.7269 2.61169L99.7298 2.62298L99.7411 2.69074L99.7439 2.70204L99.7524 2.76698V2.78109L99.7608 2.84886V2.86015L99.7693 2.92791V2.93921L99.775 3.00979V3.17638L100.029 15.5741C100.06 17.319 98.6738 18.7703 96.9261 18.8013C95.1784 18.8324 93.73 17.4433 93.6961 15.6955L93.5972 10.8674L85.3415 19.1232C84.102 20.3627 82.0889 20.3627 80.8494 19.1232C79.6099 17.8837 79.6099 15.8706 80.8494 14.6311L88.947 6.53345ZM133.224 21.7659L124.915 22.2459C123.167 22.3391 121.668 21.0008 121.572 19.2531C121.479 17.5054 122.817 16.0061 124.565 15.9129L140.314 15.0094L140.382 15.0038H140.478L140.543 15.001H140.625L140.639 15.0038H140.718L140.786 15.0094H140.8L140.865 15.0179H140.879L140.944 15.0236L140.958 15.0264L141.023 15.0349L141.037 15.0377L141.099 15.0461L141.113 15.0518L141.175 15.0631L141.189 15.0659L141.254 15.0772L141.265 15.08L141.33 15.097L141.342 15.0998L141.407 15.1139L141.418 15.1196L141.48 15.1393L141.494 15.1421L141.553 15.1619L141.568 15.1647L141.627 15.1873L141.638 15.1901L141.697 15.2156L141.712 15.2184L141.771 15.241L141.782 15.2494L141.841 15.2748L141.853 15.2777L141.912 15.3059L141.923 15.3115L141.98 15.337L141.994 15.3454L142.048 15.3737L142.059 15.3793L142.115 15.4104L142.127 15.4188L142.18 15.4499L142.192 15.4555L142.245 15.4894L142.257 15.4979L142.31 15.5318L142.321 15.5374L142.372 15.5741L142.384 15.5826L142.434 15.6193L142.446 15.625L142.497 15.6645L142.505 15.673L142.556 15.7097L142.564 15.7209L142.612 15.7605L142.624 15.7689L142.672 15.8085L142.68 15.8198L142.728 15.8593L142.737 15.8706L142.782 15.9129L142.79 15.9242L142.835 15.9694L142.847 15.9779L142.886 16.0231L142.897 16.0344L142.94 16.0824L142.945 16.0908L142.988 16.1388L142.996 16.1473L143.036 16.1953L143.044 16.2066L143.084 16.2574L143.092 16.2659L143.129 16.3167L143.137 16.328L143.174 16.3788L143.18 16.3901L143.216 16.4438L143.222 16.455L143.256 16.5087L143.264 16.52L143.296 16.5765L143.304 16.5877L143.335 16.6414L143.341 16.6527L143.369 16.7092L143.377 16.7233L143.406 16.7769L143.411 16.791L143.44 16.8503L143.442 16.8616L143.471 16.9181L143.476 16.9322L143.502 16.9915V17.0028L143.552 17.1355L143.558 17.1496L143.578 17.2089L143.581 17.223L143.603 17.2851V17.2993L143.623 17.3614L143.626 17.3755L143.64 17.4404L143.643 17.4517L143.66 17.5167L143.663 17.5308L143.674 17.5929L143.677 17.607L143.688 17.6748V17.6889L143.699 17.751L143.702 17.7651L143.708 17.8329L143.711 17.847L143.716 17.9148V17.9289L143.722 17.9966V18.0108L143.725 18.0785L144.555 34.0508C144.642 35.7985 143.298 37.2921 141.551 37.3796C139.803 37.4671 138.312 36.1203 138.225 34.3726L137.798 26.179L124.122 39.8558C122.882 41.0953 120.869 41.0953 119.629 39.8558C118.39 38.6163 118.39 36.6032 119.629 35.3637L133.224 21.7659ZM104.572 40.2708L109.434 40.5249C111.707 40.6463 113.471 42.603 113.353 44.8759L113.119 49.3793C115.293 50.1557 117.323 51.2117 119.18 52.5048L122.701 49.3313C124.393 47.8094 127.021 47.9449 128.546 49.639L131.807 53.2587C133.329 54.9499 133.19 57.5814 131.499 59.1032L127.716 62.5111C128.653 64.444 129.343 66.4874 129.768 68.5928L134.961 68.8639C137.231 68.9824 138.995 70.9391 138.877 73.212L138.626 78.0768C138.501 80.3525 136.545 82.1143 134.275 81.9929L129.037 81.719C128.383 83.7468 127.479 85.6854 126.346 87.4901L129.816 91.3441C131.341 93.0354 131.203 95.664 129.509 97.1887L125.892 100.447C124.198 101.969 121.569 101.83 120.047 100.142L116.769 96.5054C114.802 97.5753 112.705 98.3857 110.529 98.9166L110.479 99.8653C110.12 94.6024 109.039 90.4689 107.401 87.1541C113.517 86.1716 118.325 81.0301 118.661 74.5955C119.048 67.1924 113.359 60.8735 105.953 60.4867C98.5468 60.0999 92.2307 65.7891 91.8439 73.195C91.8185 73.6581 91.8185 74.1211 91.8411 74.5757C89.3169 73.6157 86.6459 72.7743 83.91 71.9132C81.1656 71.052 78.3139 70.1514 75.674 68.9909C75.9902 68.3556 76.2726 67.7006 76.5154 67.0145C76.9841 66.6644 77.4189 66.2889 77.8198 65.8795L79.6974 65.9783C80.4663 63.5225 81.6019 61.197 83.0658 59.0806L80.6913 56.4463C79.1666 54.7579 79.305 52.1236 80.9962 50.6018L84.6159 47.3407C86.3043 45.8189 88.9357 45.9572 90.4604 47.6485L93.0241 50.4973C95.2038 49.4273 97.5529 48.6621 100.009 48.2386L100.221 44.1869C100.342 41.9169 102.299 40.1522 104.572 40.2708Z" fill="#E03A3C"/>
</g>
<defs>
<clipPath id="clip0_62_54">
<rect width="144.56" height="103.9" fill="white"/>
</clipPath>
</defs>
</svg>
