<svg width="150" height="150" viewBox="0 0 150 150" fill="none" xmlns="http://www.w3.org/2000/svg">
<path d="M98.0418 82.5416C95.7293 82.5485 93.4233 82.2969 91.1667 81.7916C92.4821 84.6338 93.4879 87.6093 94.1668 90.6666C95.4168 90.6666 96.7084 90.6666 98.0418 90.6666C102.291 90.66 106.511 89.9707 110.542 88.625L106.667 81.0833C103.872 81.9624 100.97 82.4532 98.0418 82.5416Z" fill="#E03A3C"/>
<path d="M76.4999 74.4583L74.9999 72.875C71.7468 69.6944 69.2378 65.8333 67.6529 61.5687C66.0681 57.304 65.4467 52.7415 65.8332 48.2083C66.2587 42.1364 68.4937 36.3313 72.2499 31.5417L71.9166 37.5C71.9123 38.543 72.2995 39.5498 73.0015 40.3212C73.7035 41.0927 74.6694 41.5728 75.7082 41.6667H76.0832C77.1263 41.6709 78.133 41.2837 78.9045 40.5817C79.6759 39.8797 80.156 38.9138 80.2499 37.875L81.6666 20.8333C81.7165 20.2298 81.6342 19.6227 81.4255 19.0542C81.2168 18.4857 80.8867 17.9695 80.4582 17.5417C80.0021 17.1722 79.4731 16.9032 78.9059 16.7525C78.3386 16.6017 77.7459 16.5724 77.1666 16.6667L60.1249 18.125C59.0198 18.2189 57.9973 18.748 57.2824 19.5958C56.5674 20.4436 56.2185 21.5407 56.3124 22.6458C56.4063 23.7509 56.9354 24.7734 57.7832 25.4884C58.631 26.2033 59.7282 26.5522 60.8332 26.4583L66.2082 26C61.1468 32.3333 58.1638 40.0746 57.6666 48.1667C57.236 53.7123 58.007 59.2856 59.9269 64.5061C61.8469 69.7266 64.8705 74.4714 68.7916 78.4166L70.0832 79.9583C75.4076 85.4608 78.471 92.7624 78.6666 100.417C78.8886 103.884 78.5224 107.363 77.5832 110.708L85.0832 114.5C86.6966 109.803 87.3347 104.827 86.9582 99.875C86.7024 90.4079 82.981 81.3639 76.4999 74.4583Z" fill="#E03A3C"/>
<path d="M135 74.625L129.958 75C134.559 69.0457 137.396 61.9199 138.148 54.433C138.9 46.9461 137.535 39.3985 134.21 32.6485C130.885 25.8985 125.733 20.217 119.339 16.25C112.945 12.283 105.566 10.1898 98.0417 10.2083C93.7915 10.201 89.5688 10.8907 85.5417 12.25L89.3334 19.75C94.0902 18.4028 99.0947 18.1776 103.953 19.0921C108.812 20.0066 113.392 22.0359 117.334 25.0203C121.275 28.0047 124.47 31.8628 126.668 36.2913C128.866 40.7198 130.007 45.5978 130 50.5416C129.999 57.6861 127.575 64.6191 123.125 70.2083L123.542 63.7917C123.577 63.2445 123.505 62.6957 123.328 62.1765C123.152 61.6574 122.875 61.1781 122.513 60.766C122.151 60.354 121.712 60.0172 121.22 59.775C120.728 59.5327 120.193 59.3897 119.646 59.3541C119.099 59.3186 118.55 59.3911 118.031 59.5677C117.512 59.7442 117.032 60.0213 116.62 60.383C116.208 60.7448 115.871 61.1842 115.629 61.6761C115.387 62.168 115.244 62.7028 115.208 63.25L114.042 80.25C114.009 80.8529 114.107 81.4559 114.33 82.0171C114.553 82.5782 114.895 83.0842 115.333 83.5C115.708 83.88 116.156 84.1795 116.65 84.3801C117.145 84.5808 117.675 84.6783 118.208 84.6667H118.625L135.625 82.9167C136.173 82.8646 136.706 82.7044 137.192 82.4453C137.678 82.1862 138.107 81.8333 138.456 81.4071C138.805 80.9809 139.066 80.4898 139.223 79.9622C139.381 79.4346 139.433 78.881 139.375 78.3333C139.259 77.2726 138.741 76.2966 137.927 75.6067C137.113 74.9167 136.065 74.5653 135 74.625Z" fill="#E03A3C"/>
<path d="M16.9583 85.1666H17.2917L34.3333 83.7083C34.8805 83.6618 35.4132 83.508 35.9009 83.2556C36.3886 83.0032 36.8219 82.6573 37.1759 82.2375C37.5299 81.8177 37.7978 81.3323 37.9642 80.8089C38.1306 80.2856 38.1923 79.7346 38.1458 79.1875C38.0993 78.6403 37.9455 78.1076 37.6931 77.6199C37.4408 77.1322 37.0948 76.6989 36.675 76.3449C36.2552 75.9909 35.7698 75.723 35.2465 75.5566C34.7232 75.3902 34.1722 75.3284 33.625 75.375L27.8333 75.875C33.2886 71.8505 39.8875 69.6752 46.6667 69.6666C48.9504 69.6803 51.2266 69.9317 53.4583 70.4166C52.1496 67.5758 51.1575 64.5995 50.5 61.5416C49.25 61.5416 47.9583 61.5416 46.6667 61.5416C37.7768 61.5284 29.1327 64.4586 22.0833 69.875L22.5833 64.4166C22.6289 63.8691 22.5657 63.318 22.3975 62.7949C22.2292 62.2719 21.9592 61.7874 21.6029 61.3691C21.2466 60.9509 20.8111 60.6072 20.3215 60.358C19.8319 60.1087 19.2978 59.9587 18.75 59.9166C17.6508 59.8242 16.5598 60.1715 15.7163 60.8823C14.8727 61.5931 14.3454 62.6093 14.25 63.7083L12.7917 80.7083C12.7456 81.2828 12.8192 81.8607 13.0078 82.4054C13.1964 82.95 13.496 83.4496 13.8877 83.8725C14.2793 84.2954 14.7544 84.6325 15.2829 84.8625C15.8114 85.0924 16.382 85.2101 16.9583 85.2083V85.1666Z" fill="#E03A3C"/>
<path d="M76.75 117.625L59.7083 118.75C58.6033 118.822 57.572 119.33 56.8414 120.162C56.1108 120.994 55.7407 122.082 55.8125 123.187C55.8843 124.293 56.3922 125.324 57.2244 126.054C58.0566 126.785 59.1449 127.155 60.25 127.083L66.6667 126.625C61.9478 130.418 56.2533 132.8 50.2395 133.496C44.2257 134.193 38.1374 133.177 32.6762 130.564C27.2151 127.951 22.6035 123.848 19.3729 118.728C16.1423 113.608 14.4242 107.679 14.4167 101.625C14.4467 98.8058 14.8531 96.0032 15.625 93.2916L8.33333 89.4166C7.04252 93.3864 6.38173 97.5339 6.375 101.708C6.42389 109.254 8.58433 116.636 12.6117 123.017C16.6392 129.399 22.3727 134.525 29.1632 137.816C35.9538 141.108 43.5301 142.432 51.0344 141.64C58.5388 140.847 65.6715 137.97 71.625 133.333L71.125 138.25C71.0672 138.794 71.1174 139.345 71.2725 139.87C71.4277 140.395 71.6848 140.885 72.0292 141.31C72.3736 141.736 72.7985 142.09 73.2797 142.351C73.7608 142.612 74.2888 142.776 74.8333 142.833H75.2917C76.3282 142.838 77.3294 142.457 78.0999 141.764C78.8703 141.07 79.3547 140.115 79.4583 139.083L81.2083 122.167C81.2702 121.564 81.1999 120.955 81.0022 120.382C80.8045 119.809 80.4843 119.286 80.0638 118.85C79.6433 118.414 79.1327 118.074 78.5675 117.855C78.0024 117.637 77.3964 117.544 76.7917 117.583L76.75 117.625Z" fill="#E03A3C"/>
</svg>
