<svg width="140" height="151" viewBox="0 0 140 151" fill="none" xmlns="http://www.w3.org/2000/svg">
<g clip-path="url(#clip0_62_39)">
<path fill-rule="evenodd" clip-rule="evenodd" d="M91.759 123.362C91.759 123.239 91.759 123.116 91.759 122.981V56.4802C91.759 56.3574 91.759 56.2224 91.759 56.0996C91.6789 55.6765 91.4736 55.2872 91.1696 54.9822C90.9744 54.7873 90.7428 54.6328 90.4878 54.5274C90.2329 54.4221 89.9597 54.368 89.6839 54.3683H49.7415C49.1814 54.3683 48.6442 54.5908 48.2482 54.9869C47.8521 55.3829 47.6296 55.9201 47.6296 56.4802V122.969C47.6328 123.529 47.8559 124.066 48.2509 124.463C48.646 124.861 49.1813 125.087 49.7415 125.093H66.4159V128.519C64.5803 129.043 62.9062 130.02 61.5479 131.362C60.1895 132.703 59.1907 134.364 58.6435 136.193H42.1288V142.431H58.5576C59.2137 144.844 60.6458 146.975 62.633 148.494C64.6201 150.013 67.0518 150.836 69.5531 150.836C72.0543 150.836 74.4861 150.013 76.4732 148.494C78.4604 146.975 79.8924 144.844 80.5486 142.431H109.723V136.156H80.4749C79.9295 134.353 78.9467 132.712 77.614 131.38C76.252 130.009 74.5608 129.012 72.7026 128.482V125.056H89.6348C89.9118 125.057 90.1861 125.002 90.4414 124.894C90.6966 124.787 90.9276 124.629 91.1205 124.43C91.4264 124.127 91.632 123.737 91.7099 123.313L91.759 123.362ZM97.8983 33.9489C97.0388 34.3664 96.1916 34.833 95.3444 35.3241C92.6564 36.9301 90.0986 38.7448 87.6948 40.7513L82.2676 34.4646C84.174 32.7003 86.228 31.1023 88.4069 29.6882C90.1405 28.5621 91.9498 27.5569 93.8218 26.68C94.5708 26.3116 95.3198 25.9555 96.0934 25.6363C92.7311 19.6108 87.5833 14.7762 81.359 11.7982C75.4614 8.99544 68.9112 7.85351 62.4131 8.49529C55.972 9.08599 49.8295 11.4868 44.695 15.4204C38.2332 20.5336 33.8975 27.8618 32.5269 35.9872L31.9866 38.8358L29.1502 39.2901C26.6111 39.7152 24.1192 40.3855 21.7094 41.2915C19.7122 42.0512 17.8219 43.0665 16.0858 44.3121C14.8142 45.2186 13.663 46.2831 12.66 47.48C9.7513 51.0571 8.21436 55.5547 8.32568 60.1638C8.37804 64.8631 9.88352 69.431 12.6355 73.2406C13.66 74.6745 14.865 75.9703 16.2208 77.0961C17.6192 78.2561 19.1891 79.1922 20.8744 79.871C22.3654 80.4807 23.9172 80.9294 25.5035 81.2094V89.6325C22.829 89.2711 20.2099 88.5781 17.7066 87.5697C15.2318 86.5686 12.9252 85.1938 10.8674 83.4932C8.98543 81.9235 7.30667 80.1251 5.86995 78.1397C2.10258 72.8984 0.052126 66.6184 0.000761772 60.1638C-0.119861 53.6135 2.10063 47.235 6.26287 42.1756C7.70314 40.4506 9.35304 38.9121 11.1743 37.5957C13.5007 35.9369 16.0303 34.5834 18.7011 33.5683C20.7324 32.7863 22.8169 32.1503 24.9387 31.6651C27.0973 22.6049 32.2712 14.5474 39.6116 8.81454C45.9902 3.92607 53.6238 0.945858 61.6272 0.219488C69.6297 -0.568967 77.6957 0.840459 84.9566 4.296C93.3799 8.32929 100.213 15.0629 104.369 23.4261C106.164 23.1407 107.979 23.0011 109.796 23.0086C113.696 22.9774 117.559 23.7645 121.135 25.319C124.711 26.8735 127.922 29.1609 130.559 32.0334C131.825 33.4069 132.971 34.8857 133.985 36.4538C137.699 42.5691 139.579 49.6224 139.4 56.7749C139.314 63.9334 137.386 71.055 133.445 76.3102C130.794 79.7691 127.448 82.6342 123.622 84.7211C119.456 86.9676 114.997 88.6208 110.373 89.6325L109.44 89.743H105.757V81.3936H109.035C112.714 80.5678 116.263 79.2417 119.582 77.4521C122.398 75.9317 124.865 73.8407 126.827 71.3128C129.663 67.5433 131.063 62.1898 131.124 56.7135C131.293 51.1891 129.879 45.7315 127.048 40.9846C126.294 39.8225 125.444 38.7258 124.506 37.7062C122.633 35.6713 120.354 34.0526 117.816 32.9548C115.278 31.857 112.537 31.3046 109.772 31.3336C105.699 31.3685 101.678 32.2595 97.972 33.9489H97.8983ZM73.12 135.862C72.646 135.387 72.083 135.01 71.4633 134.753C70.8436 134.495 70.1793 134.363 69.5083 134.362C68.8373 134.361 68.1728 134.493 67.5526 134.749C66.9325 135.006 66.3689 135.381 65.8941 135.855C65.4192 136.33 65.0423 136.892 64.785 137.512C64.5277 138.132 64.395 138.796 64.3944 139.467C64.3939 140.138 64.5255 140.803 64.7817 141.423C65.038 142.043 65.4139 142.607 65.8879 143.081C66.362 143.556 66.9249 143.933 67.5446 144.19C68.1643 144.448 68.8286 144.581 69.4996 144.581C70.1706 144.582 70.8352 144.45 71.4553 144.194C72.0754 143.938 72.639 143.562 73.1139 143.088C73.5888 142.614 73.9656 142.051 74.2229 141.431C74.4802 140.811 74.6129 140.147 74.6135 139.476C74.6141 138.805 74.4825 138.14 74.2262 137.52C73.97 136.9 73.5941 136.336 73.12 135.862ZM75.4161 107.559C75.4161 108.811 75.045 110.034 74.3496 111.074C73.6542 112.114 72.6659 112.924 71.5097 113.403C70.3535 113.881 69.0814 114.005 67.8545 113.76C66.6275 113.515 65.5008 112.912 64.6169 112.026C63.733 111.141 63.1318 110.013 62.8892 108.785C62.6465 107.558 62.7735 106.286 63.254 105.131C63.7345 103.976 64.5469 102.989 65.5884 102.296C66.6299 101.602 67.8537 101.233 69.1049 101.236C69.9348 101.236 70.7564 101.4 71.523 101.717C72.2895 102.035 72.9858 102.501 73.572 103.089C74.1582 103.676 74.6228 104.373 74.9393 105.14C75.2557 105.908 75.4177 106.73 75.4161 107.559ZM83.9252 65.2717V70.5761H55.5002V65.2717H83.9252ZM83.9252 80.0061V85.3105H55.5002V79.957L83.9252 80.0061Z" fill="#E03A3C"/>
</g>
<defs>
<clipPath id="clip0_62_39">
<rect width="139.387" height="150.88" fill="white"/>
</clipPath>
</defs>
</svg>
