<svg width="139" height="100" viewBox="0 0 139 100" fill="none" xmlns="http://www.w3.org/2000/svg">
<g clip-path="url(#clip0_62_54)">
<path fill-rule="evenodd" clip-rule="evenodd" d="M34.7229 65.2621C32.6134 63.3563 31.0062 61.5998 30.6316 57.4651L30.3601 57.4732C29.7303 57.4624 29.1221 57.3185 28.5574 56.9954C27.648 56.4796 27.01 55.5918 26.5783 54.5901C25.6634 52.4888 24.9386 46.9668 27.238 45.384L26.8091 45.099L26.7602 44.4854C26.6706 43.3751 26.6462 42.0285 26.6272 40.6195C26.543 35.4233 26.4371 31.5003 22.2617 30.2352L20.4672 29.6922L21.6482 28.2344C25.0254 24.0617 28.5493 20.4156 32.1085 17.6166C39.2729 11.9725 48.0853 8.63049 55.9964 15.0294C57.085 15.9063 58.1384 16.9596 59.1537 18.1976C71.3352 19.3813 77.1694 36.6857 67.586 45.9487C68.1344 45.9704 68.653 46.0953 69.1091 46.3397C70.8493 47.2709 70.9063 49.2934 70.4475 50.9929C69.9968 52.4128 69.4213 54.058 68.881 55.4371C68.2213 57.3049 67.2603 57.6524 65.3979 57.4515C65.3001 62.064 63.6875 63.7907 60.8206 66.5001C60.2261 68.0503 60.1637 69.4267 61.9147 70.776C76.3876 81.9123 96.9959 75.8066 96.9959 99.9035H0C0 75.9396 19.4356 82.2435 34.2966 70.8846C36.3735 69.2937 36.873 67.2032 34.7229 65.2621ZM85.5257 6.28215L81.3693 6.38803C79.6888 6.42332 78.2907 5.09305 78.2527 3.41256C78.2174 1.73207 79.5476 0.336641 81.2281 0.298633L92.7635 0.00271484L92.8232 0H92.9915L93.0567 0.00542969H93.0676L93.1354 0.00814453L93.1463 0.0108594L93.2114 0.0162891H93.2223L93.2875 0.0244336L93.2983 0.0271484L93.3635 0.035293L93.3743 0.0380078L93.4368 0.0488672L93.4476 0.051582L93.5128 0.0624414L93.5236 0.0651562L93.5861 0.0787305L93.597 0.0814453L93.6594 0.0977344L93.6703 0.100449L93.7327 0.116738L93.7436 0.119453L93.8033 0.135742L93.8141 0.141172L93.8739 0.160176L93.8847 0.165605L93.9445 0.184609L93.9553 0.190039L94.0123 0.211758L94.0232 0.217187L94.0802 0.241621L94.0911 0.244336L94.1508 0.26877L94.1616 0.276914L94.2159 0.301348L94.2268 0.306777L94.2811 0.333926L94.2947 0.339355L94.349 0.369219L94.3571 0.374648L94.4114 0.404512L94.4223 0.409941L94.4738 0.442519L94.482 0.447949L94.5363 0.483242L94.5472 0.488672L94.5987 0.52125L94.6069 0.529394L94.6585 0.564687L94.6666 0.570117L94.7182 0.60541L94.7263 0.613555L94.7752 0.651562L94.7833 0.659707L94.8322 0.697715L94.8404 0.705859L94.8892 0.743867L94.8974 0.752012L94.9435 0.792734L94.9517 0.800879L94.9951 0.841601L95.006 0.849746L95.0494 0.893183L95.0548 0.901328L95.101 0.94748L95.1064 0.955625L95.1498 0.999062L95.158 1.00721L95.1987 1.05336L95.2069 1.06422L95.2449 1.11037L95.253 1.11852L95.291 1.16738L95.2992 1.17553L95.3372 1.22439L95.3426 1.23254L95.3779 1.28412L95.386 1.29227L95.4213 1.34385L95.4268 1.35471L95.4593 1.40629L95.4675 1.41443L95.5001 1.46873L95.5055 1.47959L95.5381 1.53117L95.5435 1.54203L95.5734 1.59633L95.5788 1.60447L95.6087 1.66148L95.6141 1.67234L95.6385 1.72664L95.6467 1.7375L95.6738 1.79451L95.6765 1.80266L95.701 1.86238L95.7064 1.87324L95.7308 1.93297L95.7335 1.94111L95.758 2.00084V2.0117L95.7824 2.07143V2.08228L95.8041 2.14201L95.8068 2.15287L95.8258 2.21531L95.8286 2.22617L95.8448 2.28861L95.8476 2.29947L95.8638 2.36191L95.8666 2.37277L95.8774 2.43521L95.8801 2.44607L95.891 2.51123L95.8937 2.52209L95.9046 2.58725L95.9073 2.59811L95.9154 2.66055V2.67412L95.9236 2.73928V2.75014L95.9317 2.81529V2.82615L95.9371 2.89402V3.0542L96.1815 14.9751C96.2113 16.6528 94.8784 18.0483 93.1979 18.0781C91.5174 18.108 90.1247 16.7723 90.0921 15.0918L89.9971 10.4494L82.0589 18.3876C80.8671 19.5795 78.9314 19.5795 77.7396 18.3876C76.5477 17.1958 76.5477 15.2601 77.7396 14.0683L85.5257 6.28215ZM128.1 20.9287L120.11 21.3903C118.43 21.4798 116.988 20.193 116.896 18.5125C116.806 16.832 118.093 15.3904 119.773 15.3009L134.917 14.4321L134.982 14.4267H135.074L135.137 14.424H135.216L135.229 14.4267H135.305L135.37 14.4321H135.384L135.446 14.4403H135.46L135.522 14.4457L135.536 14.4484L135.598 14.4565L135.612 14.4593L135.672 14.4674L135.685 14.4728L135.745 14.4837L135.758 14.4864L135.821 14.4973L135.832 14.5L135.894 14.5163L135.905 14.519L135.968 14.5326L135.978 14.538L136.038 14.557L136.052 14.5597L136.109 14.5787L136.122 14.5814L136.179 14.6031L136.19 14.6059L136.247 14.6303L136.261 14.633L136.318 14.6547L136.329 14.6629L136.386 14.6873L136.396 14.69L136.453 14.7172L136.464 14.7226L136.519 14.747L136.532 14.7552L136.584 14.7823L136.595 14.7878L136.649 14.8176L136.66 14.8258L136.711 14.8556L136.722 14.8611L136.774 14.8936L136.785 14.9018L136.836 14.9344L136.847 14.9398L136.896 14.9751L136.907 14.9832L136.956 15.0185L136.967 15.0239L137.015 15.062L137.024 15.0701L137.072 15.1054L137.081 15.1162L137.127 15.1543L137.138 15.1624L137.184 15.2004L137.192 15.2113L137.238 15.2493L137.246 15.2601L137.29 15.3009L137.298 15.3117L137.341 15.3552L137.352 15.3633L137.39 15.4067L137.401 15.4176L137.442 15.4637L137.447 15.4719L137.488 15.518L137.496 15.5262L137.534 15.5723L137.542 15.5832L137.58 15.6321L137.588 15.6402L137.624 15.6891L137.632 15.6999L137.667 15.7488L137.672 15.7597L137.708 15.8112L137.713 15.8221L137.746 15.8737L137.754 15.8845L137.784 15.9388L137.792 15.9497L137.822 16.0013L137.827 16.0121L137.854 16.0664L137.862 16.08L137.89 16.1316L137.895 16.1452L137.922 16.2022L137.925 16.213L137.952 16.2673L137.958 16.2809L137.982 16.3379V16.3488L138.031 16.4764L138.036 16.49L138.055 16.547L138.058 16.5605L138.08 16.6203V16.6338L138.099 16.6936L138.101 16.7071L138.115 16.7696L138.118 16.7804L138.134 16.8429L138.137 16.8565L138.148 16.9162L138.15 16.9298L138.161 16.9949V17.0085L138.172 17.0682L138.175 17.0818L138.18 17.147L138.183 17.1605L138.188 17.2257V17.2393L138.194 17.3044V17.318L138.196 17.3831L138.995 32.741C139.079 34.4215 137.786 35.8577 136.106 35.9418C134.425 36.026 132.992 34.731 132.908 33.0505L132.498 25.172L119.347 38.3227C118.155 39.5145 116.22 39.5145 115.028 38.3227C113.836 37.1309 113.836 35.1952 115.028 34.0034L128.1 20.9287ZM100.55 38.7218L105.225 38.9661C107.41 39.0829 109.107 40.9643 108.993 43.1497L108.768 47.4799C110.858 48.2265 112.81 49.2418 114.596 50.4852L117.982 47.4337C119.608 45.9704 122.135 46.1008 123.601 47.7297L126.737 51.2101C128.2 52.8363 128.067 55.3665 126.441 56.8298L122.803 60.1066C123.704 61.9652 124.367 63.9299 124.777 65.9544L129.77 66.215C131.952 66.3291 133.649 68.2104 133.535 70.3959L133.293 75.0736C133.174 77.2617 131.293 78.9558 129.11 78.8391L124.074 78.5757C123.445 80.5255 122.576 82.3895 121.487 84.1249L124.823 87.8306C126.289 89.4568 126.156 91.9843 124.527 93.4503L121.049 96.5833C119.421 98.0466 116.893 97.9135 115.43 96.2901L112.278 92.7933C110.386 93.8221 108.37 94.6014 106.278 95.1118L106.229 96.024C105.884 90.9635 104.845 86.989 103.27 83.8018C109.15 82.857 113.774 77.9133 114.097 71.7262C114.469 64.6078 108.998 58.532 101.877 58.1601C94.7562 57.7882 88.6831 63.2586 88.3112 70.3796C88.2867 70.8248 88.2867 71.2701 88.3084 71.7072C85.8814 70.7841 83.3131 69.9751 80.6824 69.1471C78.0436 68.319 75.3016 67.453 72.7632 66.3372C73.0673 65.7264 73.3388 65.0965 73.5723 64.4368C74.0229 64.1002 74.441 63.7391 74.8265 63.3454L76.6319 63.4405C77.3712 61.0791 78.4631 58.8431 79.8707 56.8081L77.5875 54.2751C76.1215 52.6517 76.2545 50.1187 77.8807 48.6554L81.3612 45.5198C82.9846 44.0565 85.5149 44.1895 86.9809 45.8157L89.446 48.555C91.5418 47.5261 93.8006 46.7903 96.1625 46.3831L96.3661 42.4873C96.4828 40.3046 98.3642 38.6078 100.55 38.7218Z" fill="#E03A3C"/>
</g>
<defs>
<clipPath id="clip0_62_54">
<rect width="139" height="99.9035" fill="white"/>
</clipPath>
</defs>
</svg>
