<svg width="102" height="115" viewBox="0 0 102 115" fill="none" xmlns="http://www.w3.org/2000/svg">
<g clip-path="url(#clip0_62_9)">
<path fill-rule="evenodd" clip-rule="evenodd" d="M94.3006 34.4525C92.4874 36.4425 90.3765 38.2186 88.0053 39.6599C87.717 39.8738 87.3171 39.9017 86.9917 39.6878C83.4953 37.4654 80.5475 34.7873 78.2414 31.8767C75.0518 27.8782 73.0433 23.4426 72.3552 19.1744C71.6577 14.8411 72.3087 10.6751 74.466 7.28102C75.3215 5.95127 76.4095 4.72382 77.7299 3.67304C80.7707 1.25531 84.2392 -0.0279397 87.7077 -4.29066e-05C91.0367 0.0278539 94.3285 1.26461 97.174 3.85901C98.1783 4.77031 99.0152 5.80249 99.7033 6.93696C102.019 10.7588 102.521 15.6222 101.498 20.5599C100.494 25.4418 98.0016 30.3982 94.3006 34.4525ZM22.206 85.6059C20.3927 87.5959 18.2819 89.372 15.9106 90.8133C15.6224 91.0272 15.2225 91.0551 14.8971 90.8412C11.4007 88.6095 8.45289 85.9407 6.14676 83.0301C2.96652 79.0409 0.957951 74.6053 0.26983 70.3278C-0.42759 65.9945 0.223335 61.8286 2.38069 58.4438C3.22689 57.1047 4.31487 55.8866 5.64461 54.8358C8.68536 52.418 12.1539 51.1348 15.6131 51.1627C18.9421 51.1906 22.2339 52.4273 25.0794 55.0217C26.0837 55.933 26.9206 56.9652 27.6087 58.0997C29.9241 61.9216 30.4263 66.7849 29.4034 71.7226C28.3991 76.5953 25.907 81.5516 22.206 85.6059ZM15.8734 95.8162C20.0673 95.8162 23.6102 98.6245 24.726 102.456H80.4917C83.2442 102.456 85.7549 101.33 87.5775 99.5079C89.4001 97.6853 90.5253 95.1838 90.5253 92.4221C90.5253 89.6696 89.4001 87.1589 87.5775 85.3363C85.7549 83.5137 83.2535 82.3885 80.4917 82.3885H60.9826C56.6028 82.3885 52.6228 80.6031 49.7402 77.7204C46.8575 74.8378 45.0721 70.8578 45.0721 66.478C45.0721 62.0982 46.8575 58.1183 49.7402 55.2356C52.6228 52.353 56.6028 50.5676 60.9826 50.5676H78.6226C79.8315 46.8852 83.3 44.2257 87.3822 44.2257C92.478 44.2257 96.6068 48.3544 96.6068 53.4502C96.6068 58.546 92.478 62.6748 87.3822 62.6748C83.3372 62.6748 79.9059 60.0711 78.6598 56.4538H60.9826C58.2301 56.4538 55.7194 57.579 53.8968 59.4015C52.0742 61.2241 50.949 63.7256 50.949 66.4873C50.949 69.2398 52.0742 71.7505 53.8968 73.5731C55.7008 75.3771 58.1836 76.5023 60.9175 76.5209H80.501C84.8808 76.5209 88.8608 78.3063 91.7434 81.1889C94.6261 84.0716 96.4115 88.0516 96.4115 92.4314C96.4115 96.8112 94.6261 100.791 91.7434 103.674C88.8608 106.556 84.8808 108.342 80.501 108.342H24.4936C23.1638 111.81 19.8069 114.265 15.8734 114.265C10.7776 114.265 6.6489 110.137 6.6489 105.041C6.6489 99.9449 10.7776 95.8162 15.8734 95.8162ZM14.9528 58.8622C19.063 58.8622 22.392 62.1912 22.392 66.3014C22.392 70.4115 19.063 73.7405 14.9528 73.7405C10.8427 73.7405 7.5137 70.4115 7.5137 66.3014C7.5137 62.1912 10.8427 58.8622 14.9528 58.8622ZM87.0475 7.69947C91.1576 7.69947 94.4866 11.0285 94.4866 15.1386C94.4866 19.2488 91.1576 22.5778 87.0475 22.5778C82.9373 22.5778 79.6083 19.2488 79.6083 15.1386C79.6083 11.0285 82.9373 7.69947 87.0475 7.69947Z" fill="#E03A3C"/>
</g>
<defs>
<clipPath id="clip0_62_9">
<rect width="102" height="114.265" fill="white"/>
</clipPath>
</defs>
</svg>
